<?xml version="1.0" encoding="UTF-8"?><!DOCTYPE svg PUBLIC "-//W3C//DTD SVG 1.1//EN" "http://www.w3.org/Graphics/SVG/1.1/DTD/svg11.dtd"><svg xmlns="http://www.w3.org/2000/svg" xmlns:xlink="http://www.w3.org/1999/xlink"><defs/><symbol id="svg-arrowup"><path d="m19 10-9-9-9 9" stroke="#FFF" stroke-width="2" fill="none" fill-rule="evenodd" stroke-linecap="round" stroke-linejoin="round"/></symbol><symbol id="svg-backarrow"><path d="m8.5 1.5-7 7 7 7" stroke="#FFF" stroke-width="2" fill="none" fill-rule="evenodd" stroke-linecap="round" stroke-linejoin="round"/></symbol><symbol id="svg-caret-left" viewBox="0 0 20 20"><path fill-rule="evenodd" clip-rule="evenodd" d="M16 1.4 14.6 0 5.4 8.6 4 10l1.4 1.4 9.2 8.6 1.4-1.4L7 10z"/></symbol><symbol id="svg-caret-right" viewBox="0 0 20 20"><path fill-rule="evenodd" clip-rule="evenodd" d="m16 10-1.4-1.4L5.4 0 4 1.4l9 8.6-9 8.6L5.4 20l9.2-8.6z"/></symbol><symbol id="svg-location-pin" viewBox="0 0 24 24"><path d="M12 0C7.802 0 4 3.403 4 7.602 4 11.8 7.469 16.812 12 24c4.531-7.188 8-12.2 8-16.398C20 3.403 16.199 0 12 0zm0 11a3 3 0 1 1 0-6 3 3 0 0 1 0 6z"/></symbol><symbol id="svg-theme-dark" viewBox="0 0 24 24"><path d="M9.37 5.51A7.35 7.35 0 0 0 9.1 7.5c0 4.08 3.32 7.4 7.4 7.4.68 0 1.35-.09 1.99-.27A7.014 7.014 0 0 1 12 19c-3.86 0-7-3.14-7-7 0-2.93 1.81-5.45 4.37-6.49zM12 3a9 9 0 1 0 9 9c0-.46-.04-.92-.1-1.36a5.389 5.389 0 0 1-4.4 2.26 5.403 5.403 0 0 1-3.14-9.8c-.44-.06-.9-.1-1.36-.1z"/></symbol><symbol id="svg-theme-device" viewBox="0 0 24 24"><path d="M4 6h18V4H4c-1.1 0-2 .9-2 2v11H0v3h14v-3H4V6zm19 2h-6c-.55 0-1 .45-1 1v10c0 .55.45 1 1 1h6c.55 0 1-.45 1-1V9c0-.55-.45-1-1-1zm-1 9h-4v-7h4v7z"/></symbol><symbol id="svg-theme-light" viewBox="0 0 24 24"><path d="M12 9c1.65 0 3 1.35 3 3s-1.35 3-3 3-3-1.35-3-3 1.35-3 3-3m0-2c-2.76 0-5 2.24-5 5s2.24 5 5 5 5-2.24 5-5-2.24-5-5-5zM2 13h2c.55 0 1-.45 1-1s-.45-1-1-1H2c-.55 0-1 .45-1 1s.45 1 1 1zm18 0h2c.55 0 1-.45 1-1s-.45-1-1-1h-2c-.55 0-1 .45-1 1s.45 1 1 1zM11 2v2c0 .55.45 1 1 1s1-.45 1-1V2c0-.55-.45-1-1-1s-1 .45-1 1zm0 18v2c0 .55.45 1 1 1s1-.45 1-1v-2c0-.55-.45-1-1-1s-1 .45-1 1zM5.99 4.58a.996.996 0 0 0-1.41 0 .996.996 0 0 0 0 1.41l1.06 1.06c.39.39 1.03.39 1.41 0s.39-1.03 0-1.41L5.99 4.58zm12.37 12.37a.996.996 0 0 0-1.41 0 .996.996 0 0 0 0 1.41l1.06 1.06c.39.39 1.03.39 1.41 0a.996.996 0 0 0 0-1.41l-1.06-1.06zm1.06-10.96a.996.996 0 0 0 0-1.41.996.996 0 0 0-1.41 0l-1.06 1.06c-.39.39-.39 1.03 0 1.41s1.03.39 1.41 0l1.06-1.06zM7.05 18.36a.996.996 0 0 0 0-1.41.996.996 0 0 0-1.41 0l-1.06 1.06c-.39.39-.39 1.03 0 1.41s1.03.39 1.41 0l1.06-1.06z"/></symbol><symbol id="svg-tick" viewBox="0 0 13 13"><g fill="none" fill-rule="evenodd"><path d="M12.3 6.54a1.655 1.655 0 0 1-.484-2.164c.725-1.286-.47-2.813-1.861-2.378-.8.25-1.655-.17-1.963-.963-.534-1.38-2.45-1.38-2.984 0a1.597 1.597 0 0 1-1.963.963C1.653 1.563.46 3.09 1.185 4.376c.416.74.205 1.682-.486 2.164-1.2.838-.774 2.742.665 2.966.827.129 1.419.885 1.358 1.736-.106 1.479 1.62 2.326 2.689 1.32a1.582 1.582 0 0 1 2.178 0c1.069 1.006 2.795.159 2.69-1.32-.062-.851.53-1.607 1.357-1.736 1.44-.224 1.866-2.128.665-2.966" fill="#1567F4"/><path stroke="#FFF" stroke-linecap="round" stroke-linejoin="round" d="m3.903 7.253 1.724 1.725 3.526-3.526"/></g></symbol></svg>