<?xml version="1.0" encoding="UTF-8"?><!DOCTYPE svg PUBLIC "-//W3C//DTD SVG 1.1//EN" "http://www.w3.org/Graphics/SVG/1.1/DTD/svg11.dtd"><svg xmlns="http://www.w3.org/2000/svg" xmlns:xlink="http://www.w3.org/1999/xlink"><defs/><symbol id="svg-caret-down" viewBox="0 0 20 20"><path fill-rule="evenodd" clip-rule="evenodd" d="M20 5.4L18.6 4 10 13 1.4 4 0 5.4l8.6 9.2L10 16l1.4-1.4z"/></symbol><symbol id="svg-caret-left" viewBox="0 0 20 20"><path fill-rule="evenodd" clip-rule="evenodd" d="M16 1.4L14.6 0 5.4 8.6 4 10l1.4 1.4 9.2 8.6 1.4-1.4L7 10z"/></symbol><symbol id="svg-caret-right" viewBox="0 0 20 20"><path fill-rule="evenodd" clip-rule="evenodd" d="M16 10l-1.4-1.4L5.4 0 4 1.4l9 8.6-9 8.6L5.4 20l9.2-8.6z"/></symbol><symbol id="svg-caret-up" viewBox="0 0 20 20"><path fill-rule="evenodd" clip-rule="evenodd" d="M20 14.6l-8.6-9.2L10 4 8.6 5.4 0 14.6 1.4 16 10 7l8.6 9z"/></symbol><symbol id="svg-close" viewBox="0 0 20 20"><path fill-rule="evenodd" d="M18.01 3.59l-1.6-1.6L10 8.4 3.59 1.99l-1.6 1.6L8.4 10l-6.41 6.41 1.6 1.6L10 11.6l6.41 6.41 1.6-1.6L11.6 10l6.41-6.41z"/></symbol><symbol id="svg-contact-email" viewBox="0 0 512 512"><path d="M464 64H48C21.49 64 0 85.49 0 112v288c0 26.51 21.49 48 48 48h416c26.51 0 48-21.49 48-48V112c0-26.51-21.49-48-48-48zm0 48v40.805c-22.422 18.259-58.168 46.651-134.587 106.49-16.841 13.247-50.201 45.072-73.413 44.701-23.208.375-56.579-31.459-73.413-44.701C106.18 199.465 70.425 171.067 48 152.805V112h416zM48 400V214.398c22.914 18.251 55.409 43.862 104.938 82.646 21.857 17.205 60.134 55.186 103.062 54.955 42.717.231 80.509-37.199 103.053-54.947 49.528-38.783 82.032-64.401 104.947-82.653V400H48z"/></symbol><symbol id="svg-contact-location" viewBox="0 0 384 512"><path d="M172.268 501.67C26.97 291.031 0 269.413 0 192 0 85.961 85.961 0 192 0s192 85.961 192 192c0 77.413-26.97 99.031-172.268 309.67-9.535 13.774-29.93 13.773-39.464 0zM192 272c44.183 0 80-35.817 80-80s-35.817-80-80-80-80 35.817-80 80 35.817 80 80 80z"/></symbol><symbol id="svg-contact-phone" viewBox="0 0 512 512"><path d="M497.39 361.8l-112-48a24 24 0 00-28 6.9l-49.6 60.6A370.66 370.66 0 01130.6 204.11l60.6-49.6a23.94 23.94 0 006.9-28l-48-112A24.16 24.16 0 00122.6.61l-104 24A24 24 0 000 48c0 256.5 207.9 464 464 464a24 24 0 0023.4-18.6l24-104a24.29 24.29 0 00-14.01-27.6z"/></symbol><symbol id="svg-filetype-app" viewBox="0 0 25 31.32"><path d="M25 7.18a.61.61 0 00-.09-.18l-.07-.1L18.1.16a.44.44 0 00-.15-.1.51.51 0 00-.24-.06H.56A.55.55 0 000 .55v30.21a.55.55 0 00.56.55h23.89a.55.55 0 00.55-.55V7.29a.57.57 0 000-.11zM18.26 1.9l4.84 4.84h-4.84V1.9zm5.63 28.31H1.11V1.11h16v6.18a.56.56 0 00.56.55h6.18v22.37z"/><path d="M19.75 11.38H5.25a.58.58 0 00-.58.57V23a.57.57 0 00.58.57h14.5a.58.58 0 00.57-.57V12a.58.58 0 00-.57-.62zm-.58 11.08H5.83v-8.15h13.34v8.15zm0-9.3H5.83v-.63h13.34v.63z"/><path d="M18.28 18.08l-1.13-1.14 1.12-1.15-.6-.59-1.11 1.14-1.11-1.14-.61.6 1.13 1.14-1.12 1.15.6.59 1.11-1.13 1.11 1.13.61-.6z"/></symbol><symbol id="svg-filetype-audio" viewBox="0 0 25 31.32"><path d="M25 7.18a.61.61 0 00-.09-.18l-.07-.1L18.1.16a.55.55 0 00-.4-.16H.56A.56.56 0 000 .55v30.21a.55.55 0 00.56.55h23.89a.55.55 0 00.55-.55V7.29a.56.56 0 000-.11zm-6.74-5.29l4.85 4.84h-4.85V1.89zm5.63 28.31H1.11V1.11h16v6.18a.55.55 0 00.56.55h6.19v22.37z"/><path d="M15.13 16.93l-3.66-2.5a.56.56 0 00-.87.46v5a.56.56 0 00.87.46l3.66-2.5a.55.55 0 000-.92zm-3.42 1.91v-2.9l2.13 1.45z"/><path d="M12.5 11.51a5.88 5.88 0 105.88 5.88 5.89 5.89 0 00-5.88-5.88zm0 10.65a4.77 4.77 0 114.77-4.77 4.78 4.78 0 01-4.77 4.77z"/></symbol><symbol id="svg-filetype-default" viewBox="0 0 25 31.3"><path d="M25 7.2c0-.1-.1-.1-.1-.2l-.1-.1L18.1.2 18 .1c-.1-.1-.2-.1-.3-.1H.6C.3 0 0 .2 0 .5v30.2c0 .3.2.6.5.6h23.9c.3 0 .5-.2.5-.5V7.3c.1 0 .1-.1.1-.1zm-6.7-5.3l4.8 4.8h-4.8V1.9zm5.6 28.3H1.1V1.1h16v6.2c0 .3.3.6.6.6h6.2v22.3z"/></symbol><symbol id="svg-filetype-doc" viewBox="0 0 25 31.32"><path d="M25 7.18a.53.53 0 00-.1-.18l-.06-.1L18.1.16a.56.56 0 00-.39-.16H.56A.56.56 0 000 .56v30.2a.55.55 0 00.56.55h23.88a.55.55 0 00.56-.55V7.29a.57.57 0 000-.11zm-6.74-5.29l4.84 4.84h-4.84V1.89zm5.63 28.31H1.11V1.11h16v6.18a.55.55 0 00.56.55h6.18v22.37z"/><path d="M18.23 18.64H6.77a.55.55 0 100 1.11h11.46a.55.55 0 100-1.11zM18.23 21H6.77a.55.55 0 100 1.11h11.46a.55.55 0 100-1.11zM6.22 14.5a.55.55 0 00.56.55h11.45a.55.55 0 100-1.11H6.77a.55.55 0 00-.55.56zM18.23 16.27H6.77a.55.55 0 100 1.11h11.46a.55.55 0 100-1.11z"/></symbol><symbol id="svg-filetype-image" viewBox="0 0 25 31.32"><path d="M25 7.18a.61.61 0 00-.09-.18l-.07-.1L18.1.16a.55.55 0 00-.4-.16H.55A.56.56 0 000 .55v30.21a.55.55 0 00.56.55h23.89a.56.56 0 00.55-.55V7.29a.57.57 0 000-.11zm-6.74-5.29l4.85 4.84h-4.85V1.89zm5.63 28.31H1.11V1.11h16v6.18a.55.55 0 00.56.55h6.19v22.37z"/><path d="M6.22 11.93v9.58a.55.55 0 00.56.55h11.45a.55.55 0 00.56-.55v-9.58a.56.56 0 00-.56-.55H6.77a.56.56 0 00-.55.55zm1.11.55h10.34v4.6l-2.33-2.34a.58.58 0 00-.79 0l-3.61 3.61-1.07-1.07a.58.58 0 00-.79 0L7.33 19v-6.51zm0 8.12l2.15-2.14 1.08 1.07a.57.57 0 00.78 0l3.61-3.6 2.73 2.72V21H7.33v-.4z"/><path d="M11.77 15a1.64 1.64 0 10-1.64 1.64A1.64 1.64 0 0011.77 15zM9.6 15a.53.53 0 11.53.53.53.53 0 01-.53-.53z"/></symbol><symbol id="svg-filetype-pdf" viewBox="0 0 25 31.32"><path d="M25 7.15a.25.25 0 000-.07.52.52 0 00-.12-.18L18.09.16 18 .09h-.1L17.84 0H.56A.55.55 0 000 .55v30.21a.56.56 0 00.56.55h23.88a.56.56 0 00.56-.55V7.29a.45.45 0 000-.14zm-6.74-5.26l4.85 4.84h-4.85V1.89zm5.63 28.31H1.11V1.11h16v6.18a.55.55 0 00.56.55h6.19v22.37z"/><path d="M14.94 18a14.54 14.54 0 01-2.15-3.21c.61-2.62.17-3.19 0-3.41A1 1 0 0012 11a1.24 1.24 0 00-.39.07 1.2 1.2 0 00-.74.69c-.29.67-.11 1.74.54 3.18a30.4 30.4 0 01-1.66 4.7C8 20.44 7 21.26 6.94 22.1a1.37 1.37 0 00.62 1.27 1 1 0 00.6.2 2 2 0 001.5-1.07 13.07 13.07 0 001.07-1.9 21.81 21.81 0 013.77-1.21 3.17 3.17 0 002 1 1.48 1.48 0 001.24-.66 1.16 1.16 0 00.2-1.27 1.59 1.59 0 00-1.57-.66 8.75 8.75 0 00-1.43.2zm-6.77 4.53a.34.34 0 01-.17-.31A2.6 2.6 0 019.39 21c-.75 1.33-1.15 1.51-1.22 1.53zm3.65-10.4a.17.17 0 01.12-.13 2.77 2.77 0 010 1.49 2.35 2.35 0 01-.11-1.35zM11 19.37a32.87 32.87 0 001.23-3.47A15.75 15.75 0 0014 18.45a23 23 0 00-3 .92zm6-.37a.66.66 0 01-.1.19.45.45 0 01-.39.22 1.78 1.78 0 01-.95-.44 6.35 6.35 0 01.82-.06A1.43 1.43 0 0117 19z"/></symbol><symbol id="svg-filetype-ppt" viewBox="0 0 25 31.32"><path d="M24.84 6.9L18.1.16a.55.55 0 00-.4-.16H.55A.56.56 0 000 .55v30.21a.55.55 0 00.56.55h23.89a.55.55 0 00.55-.55V7.29a.55.55 0 00-.16-.39zm-6.58-5l4.85 4.84h-4.85V1.89zm5.63 28.31H1.11V1.11h16v6.18a.55.55 0 00.56.55h6.19v22.37z"/><path d="M13.24 11.6a.56.56 0 00-.56.55v4.5a.56.56 0 00.56.55h4.5a.56.56 0 00.56-.55 5.06 5.06 0 00-5.06-5.05zm.56 4.5v-3.36a4 4 0 013.35 3.35H13.8z"/><path d="M16.18 17.66h-4v-3.95a.55.55 0 00-.56-.55 5.05 5.05 0 105.06 5.05.56.56 0 00-.5-.55zm-4.51 4.5a3.94 3.94 0 01-.56-7.85v3.9a.56.56 0 00.56.55h3.91a4 4 0 01-3.91 3.4z"/></symbol><symbol id="svg-filetype-video" viewBox="0 0 25 31.3"><path d="M25 7.2c0-.1-.1-.1-.1-.2l-.1-.1L18.1.2c-.1-.1-.3-.2-.4-.2H.6C.3 0 0 .2 0 .6v30.2c0 .3.2.6.5.6h23.9c.3 0 .5-.2.5-.5V7.3c.1 0 .1-.1.1-.1zm-6.7-5.3l4.9 4.8h-4.9V1.9zm5.6 28.3H1.1V1.1h16v6.2c0 .3.2.6.5.6h6.2l.1 22.3z"/><path d="M18.3 16.7h-1c-.1 0-.3.1-.4.2l-1 1v-1.2c0-.3-.2-.5-.5-.5h-.7c.7-.4 1.2-1.2 1.2-2.1 0-1.3-1.1-2.3-2.4-2.3-1 0-1.9.7-2.2 1.6-.3-.9-1.2-1.6-2.2-1.6-1.3 0-2.4 1.1-2.4 2.3 0 .9.5 1.7 1.2 2.1h-.6c-.3 0-.5.2-.5.5v5c0 .3.2.5.5.5h8.1c.3 0 .5-.2.5-.5v-1.2l1 1c.1.1.2.2.4.2h1c.3 0 .5-.2.5-.5v-3.8c.1-.5-.2-.7-.5-.7zm-4.7-4c.7 0 1.3.6 1.3 1.3 0 .7-.6 1.3-1.3 1.3-.7 0-1.3-.6-1.3-1.3.1-.7.6-1.3 1.3-1.3zm-2.2 2c.2.6.6 1 1.1 1.3h-2.2c.5-.2.9-.7 1.1-1.3zM7.9 14c0-.7.6-1.3 1.3-1.3.7 0 1.3.6 1.3 1.3 0 .7-.6 1.3-1.3 1.3-.7 0-1.3-.6-1.3-1.3zm7 7.1h-7v-4h7v4zm2.9-.6h-.3l-1.4-1.3 1.4-1.3h.3v2.6z"/><path d="M13.2 19H9.6c-.3 0-.6-.2-.6-.5s.2-.5.5-.5h3.6c.3 0 .5.2.5.5.1.3-.1.5-.4.5z"/></symbol><symbol id="svg-filetype-vsd" viewBox="0 0 25 31.32"><path d="M25 7.18a.61.61 0 00-.09-.18l-.07-.1L18.1.16a.56.56 0 00-.4-.16H.56A.56.56 0 000 .55v30.21a.55.55 0 00.56.55h23.89a.56.56 0 00.55-.55V7.29a.57.57 0 000-.11zm-6.74-5.29l4.85 4.84h-4.85V1.89zm5.63 28.31H1.11V1.11h16v6.18a.55.55 0 00.56.55h6.19v22.37z"/><path d="M15.28 12.32a1.77 1.77 0 00.72 1.42l-1.13 3.13a1.76 1.76 0 00-1.06.28l-1-.83a1.77 1.77 0 10-2.89.51l-1.57 2.86a1.74 1.74 0 00-.39 0 1.77 1.77 0 101.27.54l1.62-2.86a1.76 1.76 0 001.35-.24l1 .83a1.77 1.77 0 102.66-.7l1.13-3.13a1.77 1.77 0 10-1.71-1.81zm-4 2.53a.76.76 0 11-.76.76.76.76 0 01.72-.77zM8 20.65a.76.76 0 11-.76.76.76.76 0 01.76-.76zm9-7.58a.76.76 0 11.76-.76.76.76 0 01-.76.76zm-2.27 6.31a.76.76 0 11.76-.76.76.76 0 01-.72.77z"/></symbol><symbol id="svg-filetype-xls" viewBox="0 0 25 31.32"><path d="M7 23.31h11V11.44H7v11.87zm10-2.73v1.75h-5.38v-1.74H17zm0-2.73v1.75h-5.38v-1.74H17zm0-2.73v1.75h-5.38v-1.74H17zm0-2.73v1.75h-5.38v-1.73H17zm-6.36 8.18v1.75H8v-1.73h2.66zm0-2.73v1.75H8v-1.73h2.66zm0-2.73v1.75H8v-1.73h2.66zm0-2.73v1.75H8v-1.72h2.66zM10.07 6.9l.06.1a.32.32 0 00-.06-.1zM10.13 7a.53.53 0 01.09.2.46.46 0 00-.09-.2z"/><path d="M24.84 6.9L18.1.16a.5.5 0 00-.1-.1.52.52 0 00-.29-.06H.55A.56.56 0 000 .55v30.21a.56.56 0 00.56.55h23.89a.55.55 0 00.55-.55V7.29a.55.55 0 00-.16-.39zm-6.58-5l4.84 4.84h-4.84V1.9zm5.63 28.31H1.11V1.11h16v6.18a.55.55 0 00.56.55h6.18v22.37z"/></symbol><symbol id="svg-filetype-zip" viewBox="0 0 25 31.32"><path d="M24.91 7a.61.61 0 01.08.2.54.54 0 00-.08-.2z"/><path d="M25 7.18a.61.61 0 00-.09-.18l-.07-.1L18.1.16a.56.56 0 00-.39-.16H.56A.56.56 0 000 .55v30.21a.55.55 0 00.56.55h23.88a.55.55 0 00.56-.55V7.29a.56.56 0 000-.11zm-6.74-5.29l4.84 4.84h-4.84V1.89zm5.63 28.31H1.11V1.11h16v6.18a.55.55 0 00.56.55h6.18v22.37z"/><path d="M12.55 21.39a.56.56 0 01-.55-.55.55.55 0 01.16-.39.57.57 0 01.78 0 .55.55 0 01.16.39.56.56 0 01-.55.55z"/><path d="M14.1 17.27h-1v-.67h.75a.55.55 0 100-1.11h-.74v-.81h.75a.55.55 0 100-1.11h-.75v-.81h.75a.55.55 0 100-1.11h-.75v-.41a.55.55 0 00-.56-.55h-1.3a.55.55 0 100 1.11H12v.81h-.75a.55.55 0 100 1.11H12v.81h-.75a.55.55 0 100 1.11H12v1.63h-1.1a.55.55 0 00-.56.55v4.65a.55.55 0 00.56.55h3.2a.56.56 0 00.56-.55v-4.64a.56.56 0 00-.56-.56zm-.56 4.65h-2.08v-3.54h2.09v3.54z"/></symbol><symbol id="svg-link-external" viewBox="0 0 30 30"><path d="M23 17.12h-1.1a.53.53 0 00-.39.15.51.51 0 00-.14.38V23a2.66 2.66 0 01-2.66 2.65H4.92a2.55 2.55 0 01-1.87-.78A2.55 2.55 0 012.27 23V9.16a2.56 2.56 0 01.78-1.87 2.55 2.55 0 011.87-.78h11.67a.51.51 0 00.53-.51V4.92a.52.52 0 00-.12-.38.5.5 0 00-.38-.15H4.92a4.61 4.61 0 00-3.37 1.4 4.59 4.59 0 00-1.4 3.38V23a4.57 4.57 0 001.4 3.37 4.61 4.61 0 003.37 1.4h13.79A4.78 4.78 0 0023.49 23v-5.35a.51.51 0 00-.53-.53z"/><path d="M29.54 2.58a1 1 0 00-.75-.31H20.3a1 1 0 00-.74.31 1 1 0 000 1.5L22.48 7 11.67 17.8a.53.53 0 00-.17.38.52.52 0 00.17.38l1.89 1.89a.51.51 0 00.76 0l10.81-10.8 2.92 2.91a1 1 0 00.74.32 1 1 0 00.75-.32 1 1 0 00.31-.74V3.33a1 1 0 00-.31-.75z"/></symbol><symbol id="svg-social-facebook" viewBox="0 0 30 30"><path d="M30 15a15 15 0 10-17.34 14.82V19.34H8.85V15h3.81v-3.3c0-3.76 2.24-5.84 5.66-5.84a23.37 23.37 0 013.36.29v3.69h-1.89a2.17 2.17 0 00-2.45 2.35V15h4.16l-.66 4.34h-3.5v10.48A15 15 0 0030 15z"/></symbol><symbol id="svg-social-github" viewBox="0 0 30 30"><path d="M14.9.4A15 15 0 000 15.3a14.79 14.79 0 0010.13 14.1.73.73 0 001-.79V26c-4.18 1-5-2-5-2a3.41 3.41 0 00-1.59-2.19c-1.39-1 .2-1 .2-1A4.19 4.19 0 017 22.65a3.28 3.28 0 004.37 1.19 3.73 3.73 0 011-2c-3.38-.39-7-1.59-7-7.35a5.55 5.55 0 011.59-4 5.45 5.45 0 01.2-4s1.19-.4 4.17 1.59a10.39 10.39 0 013.58-.6 12.48 12.48 0 013.78.6c2.78-2 4.17-1.59 4.17-1.59a5.45 5.45 0 01.2 4 5.55 5.55 0 011.59 4c0 5.76-3.38 7-6.76 7.35a3.33 3.33 0 011 2.79v4.17c0 .4.2.79 1 .79A14.79 14.79 0 0030 15.5 15.35 15.35 0 0014.9.4z" fill-rule="evenodd"/></symbol><symbol id="svg-social-instagram" viewBox="0 0 30 30"><path d="M15 2.7c4 0 4.48 0 6.06.09a8.3 8.3 0 012.79.52 4.5 4.5 0 011.72 1.12 4.5 4.5 0 011.12 1.72 8.3 8.3 0 01.52 2.79c.07 1.58.09 2.05.09 6.06s0 4.48-.09 6.06a8.3 8.3 0 01-.52 2.79 5 5 0 01-2.84 2.84 8.3 8.3 0 01-2.79.52c-1.58.07-2 .09-6.06.09s-4.48 0-6.06-.09a8.3 8.3 0 01-2.79-.52 4.5 4.5 0 01-1.72-1.12 4.5 4.5 0 01-1.12-1.72 8.3 8.3 0 01-.52-2.79C2.72 19.48 2.7 19 2.7 15s0-4.48.09-6.06a8.3 8.3 0 01.52-2.79 4.5 4.5 0 011.12-1.72 4.5 4.5 0 011.72-1.12 8.3 8.3 0 012.79-.52C10.52 2.72 11 2.7 15 2.7M15 0c-4.07 0-4.58 0-6.18.09a11 11 0 00-3.65.7 7.23 7.23 0 00-2.65 1.73A7.23 7.23 0 00.79 5.17a11 11 0 00-.7 3.65C0 10.42 0 10.93 0 15s0 4.58.09 6.18a11 11 0 00.7 3.65 7.23 7.23 0 001.73 2.65 7.23 7.23 0 002.65 1.73 11 11 0 003.65.7c1.6.07 2.11.09 6.18.09s4.58 0 6.18-.09a11 11 0 003.65-.7 7.7 7.7 0 004.38-4.38 11 11 0 00.7-3.65c.09-1.6.09-2.11.09-6.18s0-4.58-.09-6.18a11 11 0 00-.7-3.65 7.23 7.23 0 00-1.73-2.65A7.23 7.23 0 0024.83.79a11 11 0 00-3.65-.7C19.58 0 19.07 0 15 0z"/><path d="M15 7.3a7.7 7.7 0 107.7 7.7A7.7 7.7 0 0015 7.3zM15 20a5 5 0 115-5 5 5 0 01-5 5z"/><circle cx="23.01" cy="6.99" r="1.8"/></symbol><symbol id="svg-social-linkedin" viewBox="0 0 30 30"><path d="M27 0H3a3 3 0 00-3 3v24a3 3 0 003 3h24a3 3 0 003-3V3a3 3 0 00-3-3zM9 25.5H4.5V12H9zm-2.25-16a2.7 2.7 0 112.7-2.7 2.69 2.69 0 01-2.7 2.65zm18.75 16H21v-7.95a2.25 2.25 0 10-4.5 0v8H12V12h4.5v1.8a4.85 4.85 0 013.75-2.1A5.31 5.31 0 0125.5 17z"/></symbol><symbol id="svg-social-twitter" viewBox="0 0 30 30"><path d="M27.19 6.54l1.87-3.75-2.81 1.88-.54.33a6 6 0 00-4.62-2.14A5.62 5.62 0 0015 8v.48a11.82 11.82 0 00.15 1.88H15S2.81 8.42 1.88 3.75a6.47 6.47 0 001.87 8.42 2.87 2.87 0 01-2.81 0s0 2.81 4.68 5.62a2.82 2.82 0 01-2.81 0s3.75 3.75 5.63 3.75c0 0 0 2.81-8.44 2.81 0 0 10.67 7 20.62-.93a16.48 16.48 0 006.36-13 6.15 6.15 0 00.21-1.48v-.52L30 5.62z"/></symbol><symbol id="svg-social-vimeo" viewBox="0 0 30 30"><path d="M30 8q-.21 4.38-6.12 12-6.12 8-10.36 8-2.61 0-4.43-4.85c-.81-3-1.62-5.93-2.42-8.9Q5.31 9.4 3.77 9.4a9.21 9.21 0 00-2.36 1.41L0 9q2.22-2 4.38-3.92c2-1.71 3.46-2.61 4.44-2.7q3.51-.33 4.31 4.8c.59 3.69 1 6 1.22 6.89q1 4.59 2.22 4.59c.63 0 1.57-1 2.83-3a11.86 11.86 0 002-4.54c.18-1.71-.5-2.57-2-2.57a5.55 5.55 0 00-2.22.49q2.2-7.26 8.45-7Q30.25 2.15 30 8z"/></symbol><symbol id="svg-social-youtube" viewBox="0 0 30 30"><path d="M29.37 7.73a3.76 3.76 0 00-2.65-2.67C24.38 4.43 15 4.43 15 4.43s-9.38 0-11.72.63A3.76 3.76 0 00.63 7.73 39.4 39.4 0 000 15a39.4 39.4 0 00.63 7.27 3.76 3.76 0 002.65 2.67c2.34.63 11.72.63 11.72.63s9.38 0 11.72-.63a3.76 3.76 0 002.65-2.67A39.4 39.4 0 0030 15a39.4 39.4 0 00-.63-7.27zM11.93 19.46v-8.92L19.77 15z"/></symbol><symbol id="svg-status-error" viewBox="0 0 24 24"><path d="M0 0h24v24H0z" fill="none"/><path d="M14.59 8L12 10.59 9.41 8 8 9.41 10.59 12 8 14.59 9.41 16 12 13.41 14.59 16 16 14.59 13.41 12 16 9.41 14.59 8zM12 2C6.47 2 2 6.47 2 12s4.47 10 10 10 10-4.47 10-10S17.53 2 12 2zm0 18c-4.41 0-8-3.59-8-8s3.59-8 8-8 8 3.59 8 8-3.59 8-8 8z"/></symbol><symbol id="svg-status-info" viewBox="0 0 24 24"><path d="M0 0h24v24H0z" fill="none"/><path d="M11 18h2v-2h-2v2zm1-16C6.48 2 2 6.48 2 12s4.48 10 10 10 10-4.48 10-10S17.52 2 12 2zm0 18c-4.41 0-8-3.59-8-8s3.59-8 8-8 8 3.59 8 8-3.59 8-8 8zm0-14c-2.21 0-4 1.79-4 4h2c0-1.1.9-2 2-2s2 .9 2 2c0 2-3 1.75-3 5h2c0-2.25 3-2.5 3-5 0-2.21-1.79-4-4-4z"/></symbol><symbol id="svg-status-success" viewBox="0 0 24 24"><path d="M0 0h24v24H0V0zm0 0h24v24H0V0z" fill="none"/><path d="M16.59 7.58L10 14.17l-3.59-3.58L5 12l5 5 8-8zM12 2C6.48 2 2 6.48 2 12s4.48 10 10 10 10-4.48 10-10S17.52 2 12 2zm0 18c-4.42 0-8-3.58-8-8s3.58-8 8-8 8 3.58 8 8-3.58 8-8 8z"/></symbol><symbol id="svg-status-warning" viewBox="0 0 24 24"><path d="M0 0h24v24H0z" fill="none"/><path d="M1 21h22L12 2 1 21zm12-3h-2v-2h2v2zm0-4h-2v-4h2v4z"/></symbol></svg>