<?xml version="1.0" encoding="utf-8"?>
<!-- Generator: Adobe Illustrator 26.1.0, SVG Export Plug-In . SVG Version: 6.00 Build 0)  -->
<svg version="1.1" id="Layer_1" xmlns="http://www.w3.org/2000/svg" xmlns:xlink="http://www.w3.org/1999/xlink" x="0px" y="0px"
	 viewBox="0 0 142 46" style="enable-background:new 0 0 142 46;" xml:space="preserve">
<g>
	<path d="M12.5,20.9H1.9V3.1h10.6v3.9H6.8v2.8h5.3v3.9H6.8V17h5.8V20.9z"/>
	<path d="M21.5,20.9h-4.8v-19h4.8V20.9z"/>
	<path d="M32.8,21.1c-2.3,0-4.1-0.6-5.4-1.8c-1.3-1.2-1.9-3-1.9-5.2c0-2.3,0.6-4.1,1.8-5.4c1.2-1.2,2.9-1.9,5.1-1.9
		c2.1,0,3.7,0.5,4.8,1.6c1.1,1.1,1.7,2.7,1.7,4.7v2.1h-8.5c0,0.8,0.3,1.4,0.8,1.8c0.5,0.4,1.3,0.7,2.2,0.7c0.8,0,1.6-0.1,2.3-0.2
		c0.7-0.2,1.5-0.4,2.3-0.8v3.4c-0.7,0.4-1.5,0.6-2.3,0.8C34.9,21.1,33.9,21.1,32.8,21.1z M32.5,10.1c-0.6,0-1,0.2-1.4,0.5
		c-0.4,0.4-0.6,0.9-0.7,1.7h4.1c0-0.7-0.2-1.2-0.6-1.6C33.6,10.3,33.2,10.1,32.5,10.1z"/>
	<path d="M46.6,20.9L41.3,7.1h5l2.3,8.2c0,0,0,0.1,0,0.2s0,0.2,0.1,0.3c0,0.1,0,0.3,0.1,0.4c0,0.2,0,0.3,0,0.4h0.1
		c0-0.4,0.1-0.9,0.2-1.4l2.5-8.2h5l-5.3,13.8H46.6z"/>
	<path d="M66.3,21.1c-2.3,0-4.1-0.6-5.4-1.8c-1.3-1.2-1.9-3-1.9-5.2c0-2.3,0.6-4.1,1.8-5.4c1.2-1.2,2.9-1.9,5.1-1.9
		c2.1,0,3.7,0.5,4.8,1.6c1.1,1.1,1.7,2.7,1.7,4.7v2.1h-8.5c0,0.8,0.3,1.4,0.8,1.8s1.3,0.7,2.2,0.7c0.8,0,1.6-0.1,2.3-0.2
		c0.7-0.2,1.5-0.4,2.3-0.8v3.4c-0.7,0.4-1.5,0.6-2.3,0.8S67.4,21.1,66.3,21.1z M66,10.1c-0.6,0-1,0.2-1.4,0.5
		c-0.4,0.4-0.6,0.9-0.7,1.7H68c0-0.7-0.2-1.2-0.6-1.6C67.1,10.3,66.6,10.1,66,10.1z"/>
	<path d="M85.1,20.9v-7.5c0-0.9-0.1-1.6-0.4-2.1c-0.3-0.5-0.7-0.7-1.3-0.7c-0.8,0-1.4,0.3-1.7,1c-0.4,0.6-0.5,1.7-0.5,3.3v6.1h-4.8
		V7.1H80l0.6,1.7h0.3c0.4-0.7,1-1.1,1.7-1.5C83.3,7,84.1,6.8,85,6.8c1.5,0,2.7,0.4,3.6,1.3c0.9,0.9,1.3,2.1,1.3,3.7v9H85.1z"/>
	<path d="M101.3,17.4c0.6,0,1.4-0.2,2.3-0.5v3.5c-0.6,0.3-1.3,0.5-1.8,0.6c-0.6,0.1-1.3,0.2-2,0.2c-1.6,0-2.8-0.4-3.5-1.2
		c-0.7-0.8-1.1-2-1.1-3.6v-5.7h-1.7V8.7l2.1-1.5l1.2-2.9h3.1v2.8h3.4v3.6H100V16C100,16.9,100.4,17.4,101.3,17.4z"/>
	<path d="M105.7,7.1h5L113,15c0.1,0.4,0.2,0.9,0.2,1.5h0.1c0.1-0.6,0.2-1.1,0.3-1.5l2.4-8h4.9l-5.5,14.7c-0.7,1.9-1.6,3.2-2.6,4
		c-1,0.8-2.4,1.2-4,1.2c-0.6,0-1.3-0.1-2-0.2V23c0.4,0.1,0.9,0.1,1.5,0.1c0.4,0,0.8-0.1,1.1-0.2c0.3-0.2,0.6-0.4,0.8-0.7
		c0.2-0.3,0.5-0.8,0.8-1.5L105.7,7.1z"/>
	<path d="M12.4,37.3c0,1.5-0.5,2.7-1.6,3.5c-1.1,0.9-2.5,1.3-4.4,1.3c-2.2,0-3.9-0.2-5-0.7v-1.2C2.6,40.7,4.3,41,6.3,41
		c1.5,0,2.6-0.3,3.5-1c0.9-0.7,1.3-1.6,1.3-2.6c0-0.7-0.1-1.2-0.4-1.7c-0.3-0.4-0.7-0.8-1.4-1.2c-0.6-0.4-1.6-0.8-2.8-1.2
		c-1.8-0.6-3.1-1.3-3.8-2c-0.7-0.7-1-1.7-1-2.9c0-1.3,0.5-2.4,1.6-3.3c1-0.8,2.4-1.3,4-1.3c1.7,0,3.3,0.3,4.7,1l-0.5,1.1
		c-1.5-0.6-2.9-0.9-4.2-0.9c-1.3,0-2.4,0.3-3.1,0.9c-0.8,0.6-1.2,1.4-1.2,2.5c0,0.7,0.1,1.2,0.4,1.6c0.2,0.4,0.6,0.8,1.2,1.1
		c0.5,0.3,1.5,0.7,2.8,1.2c1.4,0.5,2.4,0.9,3.1,1.4c0.7,0.5,1.2,1,1.5,1.5C12.2,35.8,12.4,36.5,12.4,37.3z"/>
	<path d="M20.7,41.1c0.8,0,1.4-0.1,2-0.2v1c-0.6,0.2-1.3,0.3-2,0.3c-1.2,0-2-0.3-2.6-0.9c-0.6-0.6-0.8-1.6-0.8-3v-8.6h-2V29l2-0.5
		l0.6-3h0.6v3.2h3.9v1.1h-3.9v8.4c0,1,0.2,1.8,0.5,2.3C19.4,40.8,19.9,41.1,20.7,41.1z"/>
	<path d="M35,41.9l-0.3-2.1h-0.1c-0.7,0.9-1.4,1.5-2.1,1.8C31.8,42,31,42.1,30,42.1c-1.3,0-2.3-0.3-3-1c-0.7-0.7-1.1-1.6-1.1-2.8
		c0-1.3,0.5-2.3,1.6-3c1.1-0.7,2.6-1.1,4.7-1.1l2.5-0.1v-0.9c0-1.3-0.3-2.2-0.8-2.9c-0.5-0.6-1.3-1-2.5-1c-1.2,0-2.5,0.3-3.8,1
		l-0.5-1.1c1.5-0.7,2.9-1,4.3-1c1.5,0,2.5,0.4,3.3,1.1c0.7,0.8,1.1,1.9,1.1,3.5v8.8H35z M30.1,41c1.4,0,2.5-0.4,3.4-1.2
		c0.8-0.8,1.2-1.9,1.2-3.4v-1.3l-2.3,0.1c-1.9,0.1-3.2,0.4-4,0.9c-0.8,0.5-1.2,1.3-1.2,2.3c0,0.8,0.3,1.5,0.8,1.9
		C28.4,40.8,29.2,41,30.1,41z"/>
	<path d="M46.7,28.4c0.6,0,1.2,0.1,1.8,0.2l-0.2,1.2c-0.6-0.1-1.1-0.2-1.7-0.2c-1.1,0-2.1,0.5-2.8,1.4c-0.7,1-1.1,2.2-1.1,3.6v7.3
		h-1.2V28.6h1l0.1,2.4h0.1c0.5-1,1.1-1.7,1.7-2.1C45.1,28.6,45.9,28.4,46.7,28.4z"/>
	<path d="M56.1,41.1c0.8,0,1.4-0.1,2-0.2v1c-0.6,0.2-1.3,0.3-2,0.3c-1.2,0-2-0.3-2.6-0.9c-0.6-0.6-0.8-1.6-0.8-3v-8.6h-2V29l2-0.5
		l0.6-3h0.6v3.2h3.9v1.1h-3.9v8.4c0,1,0.2,1.8,0.5,2.3C54.8,40.8,55.3,41.1,56.1,41.1z"/>
	<path d="M67.7,42.1c-1.9,0-3.4-0.6-4.5-1.8c-1.1-1.2-1.6-2.9-1.6-5c0-2.1,0.5-3.8,1.6-5.1c1-1.3,2.4-1.9,4.2-1.9
		c1.6,0,2.8,0.5,3.7,1.6c0.9,1.1,1.4,2.6,1.4,4.4v1h-9.6c0,1.8,0.4,3.2,1.3,4.2c0.8,1,2,1.4,3.6,1.4c0.8,0,1.4-0.1,2-0.2
		c0.6-0.1,1.3-0.3,2.2-0.7v1.1c-0.7,0.3-1.4,0.5-2.1,0.7S68.4,42.1,67.7,42.1z M67.3,29.4c-1.3,0-2.3,0.4-3.1,1.3
		c-0.8,0.8-1.2,2.1-1.4,3.6h8.2c0-1.5-0.3-2.7-1-3.6C69.4,29.9,68.5,29.4,67.3,29.4z"/>
	<path d="M82.6,28.4c0.6,0,1.2,0.1,1.8,0.2l-0.2,1.2c-0.6-0.1-1.1-0.2-1.7-0.2c-1.1,0-2.1,0.5-2.8,1.4c-0.7,1-1.1,2.2-1.1,3.6v7.3
		h-1.2V28.6h1l0.1,2.4h0.1c0.5-1,1.1-1.7,1.7-2.1S81.7,28.4,82.6,28.4z"/>
</g>
</svg>
