<?xml version="1.0" encoding="UTF-8"?>
<svg viewBox="0 0 13 13" version="1.1" xmlns="http://www.w3.org/2000/svg" xmlns:xlink="http://www.w3.org/1999/xlink">
    <title>Group 2</title>
    <g stroke="none" stroke-width="1" fill="none" fill-rule="evenodd">
        <g transform="translate(-290.000000, -459.000000)">
            <g transform="translate(290.000000, 459.000000)">
                <path d="M12.3006193,6.54036737 L12.3006193,6.54036737 C11.6098379,6.05830212 11.3988018,5.11600987 11.8159743,4.37627766 C12.5411708,3.09016874 11.3465593,1.56347841 9.95484315,1.99789662 C9.15438202,2.24774274 8.29990748,1.82836463 7.99247373,1.03478887 C7.45800654,-0.344929622 5.54197651,-0.344929622 5.00750932,1.03478887 C4.70007558,1.82836463 3.84566006,2.24774274 3.0451399,1.99789662 C1.65342371,1.56347841 0.458812213,3.09016874 1.18406778,4.37627766 C1.60118122,5.11600987 1.39014519,6.05830212 0.699363769,6.54036737 C-0.501564048,7.37840166 -0.0751827257,9.28211718 1.36358122,9.50615449 C2.19119663,9.63501806 2.78251073,10.3906326 2.72159068,11.2416014 C2.61574799,12.7210057 4.34199319,13.5682445 5.41098659,12.5615204 C6.02579505,11.9824165 6.974188,11.9824165 7.58905549,12.5615204 C8.65793083,13.5682445 10.3842351,12.7210057 10.2783924,11.2416014 C10.2174723,10.3906326 10.8087864,9.63501806 11.6364018,9.50615449 C13.0752248,9.28211718 13.5015471,7.37840166 12.3006193,6.54036737" id="Fill-1" fill="#1567F4"></path>
                <polyline stroke="#FFFFFF" stroke-linecap="round" stroke-linejoin="round" points="3.90272082 7.25320362 5.62706877 8.97755157 9.15265614 5.45196421"></polyline>
            </g>
        </g>
    </g>
</svg>
